<svg width="24" height="24" viewBox="0 0 24 24" fill="none" xmlns="http://www.w3.org/2000/svg">
<rect width="24" height="24" rx="12" fill="#747474"/>
<path fill-rule="evenodd" clip-rule="evenodd" d="M12 24C18.6274 24 24 18.6274 24 12C24 5.37258 18.6274 0 12 0C5.37258 0 0 5.37258 0 12C0 18.6274 5.37258 24 12 24ZM8.60355 7.89645C8.40829 7.70118 8.09171 7.70118 7.89645 7.89645C7.70118 8.09171 7.70118 8.40829 7.89645 8.60355L11.2929 12L7.89645 15.3964C7.70118 15.5917 7.70118 15.9083 7.89645 16.1036C8.09171 16.2988 8.40829 16.2988 8.60355 16.1036L12 12.7071L15.3964 16.1036C15.5917 16.2988 15.9083 16.2988 16.1036 16.1036C16.2988 15.9083 16.2988 15.5917 16.1036 15.3964L12.7071 12L16.1036 8.60355C16.2988 8.40829 16.2988 8.09171 16.1036 7.89645C15.9083 7.70118 15.5917 7.70118 15.3964 7.89645L12 11.2929L8.60355 7.89645Z" fill="#EBEBEB"/>
</svg>
