<svg width="16" height="18" viewBox="0 0 16 18" fill="none" xmlns="http://www.w3.org/2000/svg">
<path d="M9.91776 16.9999H3.36715C2.24386 16.9999 1.33325 16.0893 1.33325 14.966V6.31637C1.33325 5.19308 2.24386 4.28247 3.36715 4.28247H9.91776C11.041 4.28247 11.9517 5.19308 11.9517 6.31637V14.966C11.9517 16.0893 11.041 16.9999 9.91776 16.9999Z" stroke="#1D1D1D" stroke-miterlimit="10" stroke-linecap="round" stroke-linejoin="round"/>
<path d="M4.74268 7.59497H8.54224" stroke="#1D1D1D" stroke-miterlimit="10" stroke-linecap="round" stroke-linejoin="round"/>
<path d="M4.74268 10.6411H8.54224" stroke="#1D1D1D" stroke-miterlimit="10" stroke-linecap="round" stroke-linejoin="round"/>
<path d="M4.74268 13.6875H8.54224" stroke="#1D1D1D" stroke-miterlimit="10" stroke-linecap="round" stroke-linejoin="round"/>
<path d="M12.1245 13.7175H13.2249C14.3481 13.7175 15.2586 12.807 15.2587 11.6838" stroke="#1D1D1D" stroke-miterlimit="10" stroke-linecap="round" stroke-linejoin="round"/>
<path d="M15.2588 8.2939V3.0339C15.2588 1.91061 14.3482 1 13.2249 1H6.67428C5.55099 1 4.64038 1.91061 4.64038 3.0339V4.0661" stroke="#1D1D1D" stroke-miterlimit="10" stroke-linecap="round" stroke-linejoin="round"/>
</svg>
