<svg width="26" height="26" viewBox="0 0 26 26" fill="none" xmlns="http://www.w3.org/2000/svg">
<path d="M17.3309 4.87657V17.0703C17.3309 17.5504 17.1869 18.0185 16.9228 18.4145L13.6463 23.2872C13.1303 24.0674 11.8461 24.6194 10.7539 24.2114C9.57775 23.8153 8.79764 22.4951 9.04968 21.319L9.67377 17.3944C9.72178 17.0343 9.62576 16.7103 9.42173 16.4583C9.31747 16.3417 9.18987 16.2483 9.04721 16.1842C8.90455 16.1201 8.75001 16.0867 8.59361 16.0862H3.66089C2.71275 16.0862 1.89663 15.7021 1.41656 15.03C0.960497 14.382 0.876485 13.5418 1.17653 12.6897L4.12896 3.70039C4.50101 2.21218 6.12125 1 7.72948 1H12.4102C13.2143 1 14.3424 1.27604 14.8585 1.79212L16.3947 2.98029C16.6852 3.2039 16.9206 3.49107 17.0829 3.81978C17.2452 4.14848 17.33 4.50999 17.3309 4.87657ZM21.1474 19.4107H22.3836C24.2439 19.4107 25 18.6906 25 16.9143V4.85256C25 3.0763 24.2439 2.3562 22.3836 2.3562H21.1474C19.2872 2.3562 18.5311 3.0763 18.5311 4.85256V16.9263C18.5311 18.6906 19.2872 19.4107 21.1474 19.4107Z" stroke="white" stroke-width="2"/>
</svg>
