<svg width="18" height="18" viewBox="0 0 18 18" fill="none" xmlns="http://www.w3.org/2000/svg">
<path d="M11.8873 3.58438V11.7136C11.8873 12.0336 11.7912 12.3457 11.6152 12.6097L9.4309 15.8582C9.08685 16.3782 8.23072 16.7463 7.50262 16.4743C6.7185 16.2102 6.19843 15.3301 6.36645 14.546L6.78251 11.9296C6.81452 11.6896 6.75051 11.4735 6.61449 11.3055C6.54498 11.2278 6.45991 11.1655 6.3648 11.1228C6.2697 11.0801 6.16667 11.0578 6.06241 11.0575H2.77393C2.14184 11.0575 1.59776 10.8014 1.27771 10.3534C0.973665 9.9213 0.917657 9.36122 1.11769 8.79314L3.08597 2.80026C3.33401 1.80812 4.41417 1 5.48632 1H8.60678C9.14286 1 9.89496 1.18403 10.239 1.52808L11.2632 2.32019C11.4568 2.46927 11.6138 2.66071 11.7219 2.87985C11.8301 3.09899 11.8867 3.33999 11.8873 3.58438ZM14.4316 13.2738H15.2557C16.4959 13.2738 17 12.7937 17 11.6095V3.56837C17 2.3842 16.4959 1.90413 15.2557 1.90413H14.4316C13.1914 1.90413 12.6874 2.3842 12.6874 3.56837V11.6175C12.6874 12.7937 13.1914 13.2738 14.4316 13.2738Z" stroke="#1D1D1D"/>
</svg>
