<svg width="26" height="26" viewBox="0 0 26 26" fill="none" xmlns="http://www.w3.org/2000/svg">
<path d="M8.66912 20.4729V8.27916C8.66912 7.79909 8.81314 7.33102 9.07718 6.93496L12.3537 2.06225C12.8697 1.28214 14.1539 0.73006 15.2461 1.13812C16.4222 1.53418 17.2024 2.85437 16.9503 4.03054L16.3262 7.95511C16.2782 8.31517 16.3742 8.63921 16.5783 8.89125C16.7823 9.11928 17.0823 9.2633 17.4064 9.2633H22.3391C23.2872 9.2633 24.1034 9.64736 24.5834 10.3195C25.0395 10.9676 25.1235 11.8077 24.8235 12.6598L21.871 21.6491C21.499 23.1373 19.8788 24.3495 18.2705 24.3495H13.5898C12.7857 24.3495 11.6576 24.0735 11.1415 23.5574L9.60525 22.3692C9.01717 21.9251 8.66912 21.217 8.66912 20.4729ZM4.85256 5.93882H3.61638C1.75611 5.93882 1 6.65892 1 8.43518V20.5089C1 22.2852 1.75611 23.0053 3.61638 23.0053H4.85256C6.71283 23.0053 7.46894 22.2852 7.46894 20.5089V8.43518C7.46894 6.65892 6.71283 5.93882 4.85256 5.93882Z" stroke="white" stroke-width="2"/>
</svg>
