<svg width="18" height="18" viewBox="0 0 18 18" fill="none" xmlns="http://www.w3.org/2000/svg">
<path d="M6.11275 13.982V5.85277C6.11275 5.53273 6.20876 5.22068 6.38479 4.95664L8.5691 1.70817C8.91315 1.18809 9.76928 0.82004 10.4974 1.09208C11.2815 1.35612 11.8016 2.23625 11.6335 3.02036L11.2175 5.63674C11.1855 5.87678 11.2495 6.09281 11.3855 6.26083C11.5215 6.41286 11.7216 6.50887 11.9376 6.50887H15.2261C15.8582 6.50887 16.4022 6.76491 16.7223 7.21297C17.0263 7.64503 17.0823 8.20512 16.8823 8.7732L14.914 14.7661C14.666 15.7582 13.5858 16.5663 12.5137 16.5663H9.39322C8.85714 16.5663 8.10504 16.3823 7.76099 16.0383L6.73684 15.2461C6.34478 14.9501 6.11275 14.478 6.11275 13.982ZM3.56837 4.29255H2.74425C1.50407 4.29255 1 4.77262 1 5.95679V14.006C1 15.1901 1.50407 15.6702 2.74425 15.6702H3.56837C4.80855 15.6702 5.31263 15.1901 5.31263 14.006V5.95679C5.31263 4.77262 4.80855 4.29255 3.56837 4.29255Z" stroke="#1D1D1D"/>
</svg>
