<svg width="105" height="48" viewBox="0 0 105 48" fill="none" xmlns="http://www.w3.org/2000/svg">
<path d="M14.2593 24H34.2593M14.2593 18H34.2593M14.2593 30H34.2593" stroke="#1D1D1D" stroke-width="2" stroke-linejoin="round"/>
<path d="M52.6113 30H50.5473L47.6033 20.608V30H45.6193V18.4H48.7713L51.5873 27.648L54.3873 18.4H57.5393V30H55.5553V20.608L52.6113 30ZM67.7479 26.24H61.3319C61.4599 27.84 62.5799 28.624 63.6679 28.624C64.6759 28.624 65.4439 28.24 65.7799 27.424H67.6519C67.2679 28.8 65.9559 30.208 63.7479 30.208C60.9799 30.208 59.3959 28.112 59.3959 25.632C59.3959 23.04 61.1719 21.2 63.6199 21.2C66.2599 21.2 67.9239 23.36 67.7479 26.24ZM63.6199 22.688C62.7239 22.688 61.5079 23.232 61.3319 24.848H65.8119C65.7639 23.504 64.7399 22.688 63.6199 22.688ZM77.0593 30H75.1553V26.336H71.3153V30H69.4113V21.392H71.3153V24.832H75.1553V21.392H77.0593V30ZM86.9804 30.208C85.1084 30.208 83.1564 28.96 82.9484 26.208H81.2684V30H79.3644V21.392H81.2684V24.704H83.0124C83.3964 22.304 85.2044 21.2 86.9804 21.2C89.0764 21.2 91.2204 22.608 91.2204 25.712C91.2204 28.832 89.0764 30.208 86.9804 30.208ZM86.9804 28.656C88.1964 28.656 89.2524 27.696 89.2524 25.712C89.2524 23.728 88.1964 22.752 86.9804 22.752C85.8764 22.752 84.9004 23.728 84.9004 25.712C84.9004 27.696 85.8764 28.656 86.9804 28.656Z" fill="#1D1D1D"/>
</svg>
