<svg width="20" height="20" viewBox="0 0 20 20" fill="none" xmlns="http://www.w3.org/2000/svg">
<rect width="20" height="20" fill="#FFC300"/>
<path d="M16.3655 5.61052L9.14859 9.77719M16.3224 6.89302L9.4198 16.3805C9.32468 16.5112 9.2013 16.6246 9.05227 16.7107C8.48248 17.0396 7.75392 16.8444 7.42493 16.2746C7.31661 16.087 7.26512 15.8821 7.26517 15.68L7.26553 11.5512C7.26555 11.3491 7.21409 11.1443 7.10574 10.9566C6.99741 10.769 6.84573 10.622 6.67069 10.521L3.09487 8.45685C2.9198 8.35583 2.76815 8.20882 2.65982 8.02119C2.33083 7.4514 2.52605 6.72281 3.09586 6.39385C3.24487 6.30779 3.40477 6.25765 3.56552 6.24066L15.2332 5.00659C15.6871 4.95856 16.148 5.17507 16.3909 5.59585C16.6338 6.0166 16.5909 6.52398 16.3224 6.89302Z" stroke="black" stroke-miterlimit="10" stroke-linecap="round" stroke-linejoin="round"/>
</svg>
