<svg width="24" height="22" viewBox="0 0 24 22" fill="none" xmlns="http://www.w3.org/2000/svg">
<path d="M22.9508 11L8.96026 11M21.8115 12.8285L3.81153 20.8285C3.56351 20.9387 3.28894 21 3.00002 21C1.89545 21 1.00004 20.1046 1 19C1.00004 18.6362 1.09712 18.2952 1.26686 18.0013L4.73321 11.9987C4.90291 11.7048 5.00003 11.3638 5.00003 11C5.00003 10.6362 4.90291 10.2952 4.73321 10.0014L1.26686 3.99863C1.09712 3.70479 1.00004 3.36375 1.00004 3.00002C1 1.89541 1.89545 0.999965 3.00005 1C3.28894 0.999965 3.56351 1.06127 3.81149 1.17151L21.8115 9.17147C22.5117 9.48264 23.0001 10.1843 23.0001 11C23.0001 11.8157 22.5117 12.5173 21.8115 12.8285Z" stroke="black" stroke-miterlimit="10" stroke-linecap="round" stroke-linejoin="round"/>
</svg>
