<svg width="17" height="16" viewBox="0 0 17 16" fill="none" xmlns="http://www.w3.org/2000/svg">
<path fill-rule="evenodd" clip-rule="evenodd" d="M8.41232 9.42105C8.41232 9.6972 8.63618 9.92105 8.91232 9.92105C9.18846 9.92105 9.41232 9.6972 9.41232 9.42105L9.41232 2.20711L11.9272 4.72197C12.1225 4.91724 12.439 4.91724 12.6343 4.72197C12.8296 4.52671 12.8296 4.21013 12.6343 4.01487L9.26588 0.646446C9.07061 0.451185 8.75403 0.451184 8.55877 0.646446L5.19035 4.01487C4.99509 4.21013 4.99509 4.52671 5.19035 4.72197C5.38561 4.91724 5.70219 4.91724 5.89745 4.72197L8.41232 2.20711L8.41232 9.42105ZM1.83337 9.42105C1.83337 9.14491 1.60952 8.92105 1.33337 8.92105C1.05723 8.92105 0.833374 9.14491 0.833374 9.42105V9.84204V9.86212C0.833371 10.6059 0.833369 11.1918 0.868439 11.6648C0.904198 12.147 0.978418 12.5514 1.14787 12.9237C1.49792 13.6927 2.11434 14.3091 2.88336 14.6592C3.25562 14.8286 3.66004 14.9029 4.14228 14.9386C4.61523 14.9737 5.20117 14.9737 5.94495 14.9737H5.96502L11.8596 14.9737H11.8797C12.6235 14.9737 13.2094 14.9737 13.6824 14.9386C14.1646 14.9029 14.569 14.8286 14.9413 14.6592C15.7103 14.3091 16.3267 13.6927 16.6768 12.9237C16.8462 12.5514 16.9204 12.147 16.9562 11.6648C16.9913 11.1918 16.9913 10.6059 16.9913 9.86208V9.84204V9.42105C16.9913 9.14491 16.7674 8.92105 16.4913 8.92105C16.2151 8.92105 15.9913 9.14491 15.9913 9.42105V9.84204C15.9913 10.6103 15.9909 11.1592 15.9589 11.5908C15.9273 12.0174 15.8667 12.2895 15.7666 12.5094C15.5166 13.0587 15.0763 13.499 14.527 13.749C14.3071 13.8492 14.035 13.9097 13.6084 13.9414C13.1768 13.9734 12.6279 13.9737 11.8596 13.9737L5.96502 13.9737C5.19679 13.9737 4.64787 13.9734 4.21623 13.9414C3.78965 13.9097 3.51759 13.8492 3.29765 13.749C2.74835 13.499 2.30805 13.0587 2.05801 12.5094C1.9579 12.2895 1.89733 12.0174 1.8657 11.5908C1.83369 11.1592 1.83337 10.6103 1.83337 9.84204L1.83337 9.42105Z" fill="white"/>
</svg>
