<svg width="17" height="16" viewBox="0 0 17 16" fill="none" xmlns="http://www.w3.org/2000/svg">
<path fill-rule="evenodd" clip-rule="evenodd" d="M8.4122 9.42105C8.4122 9.6972 8.63606 9.92105 8.9122 9.92105C9.18834 9.92105 9.4122 9.6972 9.4122 9.42105V2.20711L11.9271 4.72197C12.1223 4.91724 12.4389 4.91724 12.6342 4.72197C12.8294 4.52671 12.8294 4.21013 12.6342 4.01487L9.26575 0.646446C9.07049 0.451185 8.75391 0.451185 8.55865 0.646446L5.19023 4.01487C4.99496 4.21013 4.99496 4.52671 5.19023 4.72197C5.38549 4.91724 5.70207 4.91724 5.89733 4.72197L8.4122 2.20711V9.42105ZM1.83325 9.42105C1.83325 9.14491 1.6094 8.92105 1.33325 8.92105C1.05711 8.92105 0.833252 9.14491 0.833252 9.42105L0.833252 9.84204V9.86212C0.833249 10.6059 0.833247 11.1918 0.868317 11.6648C0.904076 12.147 0.978296 12.5514 1.14775 12.9237C1.4978 13.6927 2.11422 14.3091 2.88323 14.6592C3.25549 14.8286 3.65992 14.9029 4.14216 14.9386C4.6151 14.9737 5.20105 14.9737 5.94482 14.9737H5.9649H11.8595H11.8796C12.6233 14.9737 13.2093 14.9737 13.6822 14.9386C14.1645 14.9029 14.5689 14.8286 14.9412 14.6592C15.7102 14.3091 16.3266 13.6927 16.6767 12.9237C16.8461 12.5514 16.9203 12.147 16.9561 11.6648C16.9912 11.1918 16.9911 10.6059 16.9911 9.86208V9.84204V9.42105C16.9911 9.14491 16.7673 8.92105 16.4911 8.92105C16.215 8.92105 15.9911 9.14491 15.9911 9.42105V9.84204C15.9911 10.6103 15.9908 11.1592 15.9588 11.5908C15.9272 12.0174 15.8666 12.2895 15.7665 12.5094C15.5165 13.0587 15.0762 13.499 14.5269 13.749C14.3069 13.8492 14.0349 13.9097 13.6083 13.9414C13.1767 13.9734 12.6277 13.9737 11.8595 13.9737H5.9649C5.19667 13.9737 4.64774 13.9734 4.21611 13.9414C3.78953 13.9097 3.51747 13.8492 3.29753 13.749C2.74823 13.499 2.30793 13.0587 2.05789 12.5094C1.95777 12.2895 1.89721 12.0174 1.86558 11.5908C1.83357 11.1592 1.83325 10.6103 1.83325 9.84204V9.42105Z" fill="#1D1D1D"/>
</svg>
