<svg width="336" height="66" viewBox="0 0 336 66" fill="none" xmlns="http://www.w3.org/2000/svg">
<path d="M0.08 6L2.32 0.2H2.664L4.912 6H4.56L3.952 4.424H1.024L0.424 6H0.08ZM2.488 0.592L1.144 4.112H3.832L2.488 0.592ZM9.38419 5.728V7.072H9.07219V6H5.42419V7.072H5.11219V5.728H5.30419C5.81619 5.728 6.09619 5.056 6.20019 3.112L6.26419 1.696H8.85619V5.728H9.38419ZM8.54419 5.728V1.968H6.55219L6.48819 3.128C6.40019 4.712 6.28019 5.392 5.88019 5.728H8.54419ZM10.4302 1.696H10.7422V2.648C11.0062 2.008 11.5662 1.624 12.2942 1.624C13.3102 1.624 14.1182 2.432 14.1182 3.864C14.1182 5.296 13.3102 6.104 12.2942 6.104C11.5662 6.104 11.0062 5.72 10.7422 5.08V7.4H10.4302V1.696ZM10.7102 3.864C10.7102 5.272 11.5102 5.816 12.2542 5.816C13.1102 5.816 13.7902 5.12 13.7902 3.864C13.7902 2.608 13.1102 1.912 12.2542 1.912C11.5102 1.912 10.7102 2.464 10.7102 3.864ZM16.8366 6.104C15.5966 6.104 14.8366 5.192 14.8366 3.856C14.8366 2.488 15.6286 1.624 16.8126 1.624C17.9966 1.624 18.7486 2.552 18.7086 3.88H15.1646C15.1646 5.184 15.9246 5.816 16.8526 5.816C17.6206 5.816 18.1406 5.448 18.3246 4.736H18.6446C18.4606 5.6 17.7966 6.104 16.8366 6.104ZM16.8046 1.904C15.8686 1.904 15.2446 2.536 15.1726 3.6H18.3726C18.3726 2.72 17.7886 1.904 16.8046 1.904ZM21.4054 1.624C22.3654 1.624 23.0214 2.264 23.1734 3.072H22.8534C22.6934 2.344 22.1414 1.912 21.3814 1.912C20.4454 1.912 19.7974 2.64 19.7974 3.864C19.7974 5.208 20.5254 5.816 21.3734 5.816C22.1734 5.816 22.7414 5.328 22.8694 4.664H23.1974C23.0134 5.536 22.3334 6.104 21.3654 6.104C20.1414 6.104 19.4694 5.192 19.4694 3.872C19.4694 2.528 20.1654 1.624 21.4054 1.624ZM24.5566 2.528H24.2446V1.696H24.5566V2.528ZM24.5566 6H24.2446V5.168H24.5566V6Z" fill="#1D1D1D"/>
<path d="M7.608 21H6.384V13.356H3.312L3.252 14.868C3.096 18.648 2.508 21 0.72 21H0.36V19.944H0.54C1.692 19.944 1.992 17.472 2.088 14.496L2.148 12.3H7.608V21ZM13.6976 18.3V17.892C11.7176 18.084 10.4576 18.384 10.4576 19.272C10.4576 19.884 10.9256 20.292 11.7056 20.292C12.7256 20.292 13.6976 19.824 13.6976 18.3ZM11.4656 21.156C10.2536 21.156 9.24563 20.484 9.24563 19.296C9.24563 17.772 10.9736 17.316 13.6136 17.028V16.872C13.6136 15.684 12.9656 15.3 12.1496 15.3C11.2376 15.3 10.7216 15.78 10.6736 16.584H9.54563C9.64163 15.192 10.8896 14.412 12.1376 14.412C13.9256 14.412 14.7176 15.252 14.7056 17.076L14.6936 18.564C14.6816 19.656 14.7296 20.388 14.8616 21H13.7576C13.7216 20.76 13.6856 20.496 13.6736 20.112C13.2776 20.784 12.6176 21.156 11.4656 21.156ZM16.3928 14.544H19.2008C20.4968 14.544 21.5528 14.88 21.5528 16.188C21.5528 16.872 21.2528 17.352 20.6528 17.604C21.3248 17.796 21.8168 18.252 21.8168 19.116C21.8168 20.46 20.7728 21 19.3928 21H16.3928V14.544ZM17.4848 17.256H19.1288C19.9328 17.256 20.4128 17.04 20.4128 16.308C20.4128 15.636 19.9088 15.492 19.0928 15.492H17.4848V17.256ZM17.4848 18.156V20.052H19.2248C20.1848 20.052 20.6768 19.776 20.6768 19.104C20.6768 18.384 20.1968 18.156 19.1888 18.156H17.4848ZM23.0959 14.544H24.1879V15.564C24.5839 14.88 25.2559 14.436 26.2999 14.436C27.7879 14.436 29.0599 15.684 29.0599 17.796C29.0599 19.944 27.7879 21.156 26.2999 21.156C25.2559 21.156 24.5839 20.712 24.1879 20.028V23.1H23.0959V14.544ZM24.1399 17.796C24.1399 19.5 25.0519 20.22 26.0239 20.22C27.1399 20.22 27.8719 19.344 27.8719 17.796C27.8719 16.248 27.1399 15.372 26.0239 15.372C25.0519 15.372 24.1399 16.092 24.1399 17.796ZM29.9072 23.1V22.188H30.3512C31.0712 22.188 31.4192 22.14 31.7072 21.132L31.7552 21L29.4272 14.544H30.6392L32.2832 19.524L33.8792 14.544H35.0192L32.7152 21.276C32.2352 22.668 31.9232 23.1 30.4712 23.1H29.9072ZM43.9542 14.544V21H35.9982V14.544H37.0902V20.052H39.4302V14.544H40.5222V20.052H42.8622V14.544H43.9542ZM50.2348 21V16.128L46.8988 21H45.8068V14.544H46.8988V19.416L50.2348 14.544H51.3268V21H50.2348ZM58.5539 21H57.4619V18.18H54.2699V21H53.1779V14.544H54.2699V17.232H57.4619V14.544H58.5539V21ZM63.0127 14.436C64.5967 14.436 65.5567 15.6 65.7127 16.704H64.6087C64.4527 15.936 63.7927 15.396 62.9407 15.396C61.9807 15.396 61.0807 16.152 61.0807 17.772C61.0807 19.404 61.9807 20.196 62.9407 20.196C63.8647 20.196 64.5007 19.572 64.6567 18.9H65.7847C65.5567 20.112 64.4167 21.156 62.9047 21.156C61.0447 21.156 59.8927 19.752 59.8927 17.784C59.8927 15.864 61.1047 14.436 63.0127 14.436ZM71.2283 21L69.0083 18.132H68.1803V21H67.0763V14.544H68.1803V17.184H68.9843L71.0363 14.544H72.3323L69.8963 17.592L72.5843 21H71.2283ZM78.0551 21V16.128L74.7191 21H73.6271V14.544H74.7191V19.416L78.0551 14.544H79.1471V21H78.0551ZM84.8622 12.3H85.7142C85.6182 13.02 85.1622 13.752 83.7942 13.752C82.4742 13.752 81.9702 13.02 81.9102 12.3H82.7622C82.8102 12.684 83.0982 13.032 83.8062 13.032C84.5142 13.032 84.8142 12.684 84.8622 12.3ZM85.4262 21V16.128L82.0902 21H80.9982V14.544H82.0902V19.416L85.4262 14.544H86.5182V21H85.4262ZM96.533 14.544V21H95.441V15.492H92.309V21H91.217V14.544H96.533ZM104.017 18.132H99.0491C99.0851 19.524 100.093 20.196 101.041 20.196C102.001 20.196 102.529 19.764 102.805 19.128H103.933C103.645 20.232 102.613 21.156 101.041 21.156C99.0011 21.156 97.8731 19.692 97.8731 17.784C97.8731 15.732 99.2411 14.436 101.005 14.436C102.985 14.436 104.149 16.08 104.017 18.132ZM101.005 15.372C100.045 15.372 99.1571 15.9 99.0611 17.196H102.865C102.829 16.284 102.169 15.372 101.005 15.372ZM105.362 14.544H106.454V15.564C106.85 14.88 107.521 14.436 108.566 14.436C110.054 14.436 111.326 15.684 111.326 17.796C111.326 19.944 110.054 21.156 108.566 21.156C107.521 21.156 106.85 20.712 106.454 20.028V23.1H105.362V14.544ZM106.406 17.796C106.406 19.5 107.318 20.22 108.29 20.22C109.406 20.22 110.138 19.344 110.138 17.796C110.138 16.248 109.406 15.372 108.29 15.372C107.318 15.372 106.406 16.092 106.406 17.796ZM113.676 21H112.296V19.62H113.676V21ZM115.237 21V19.62H116.617V21.096L115.885 22.668H115.189L115.825 21H115.237ZM123.498 21H122.406V14.196H120.39V13.452C121.626 13.416 122.286 13.236 122.754 12.3H123.498V21ZM130.844 16.644C130.844 14.232 129.98 13.056 128.624 13.056C127.244 13.056 126.404 14.232 126.404 16.644C126.404 19.08 127.244 20.244 128.624 20.244C130.004 20.244 130.844 19.08 130.844 16.644ZM132.008 16.644C132.008 19.392 130.94 21.156 128.624 21.156C126.308 21.156 125.24 19.392 125.24 16.644C125.24 13.896 126.308 12.144 128.624 12.144C130.94 12.144 132.008 13.896 132.008 16.644ZM135.829 17.7C135.829 15.264 136.753 13.344 137.485 12.3H138.385C137.581 13.584 136.957 15.432 136.957 17.7C136.957 19.968 137.581 21.804 138.385 23.1H137.485C136.753 22.044 135.829 20.136 135.829 17.7ZM140.763 13.356V15.732H142.803C144.735 15.732 145.911 16.524 145.911 18.3C145.911 20.208 144.615 21 142.743 21H139.539V12.3H145.383V13.356H140.763ZM140.763 19.944H142.755C143.955 19.944 144.651 19.368 144.651 18.312C144.651 17.148 143.955 16.74 142.707 16.74H140.763V19.944ZM147.999 17.796C147.999 19.524 148.935 20.196 149.931 20.196C150.927 20.196 151.863 19.452 151.863 17.796C151.863 16.068 150.927 15.396 149.931 15.396C148.935 15.396 147.999 16.032 147.999 17.796ZM149.931 14.436C151.431 14.436 153.027 15.456 153.027 17.796C153.027 20.136 151.431 21.156 149.931 21.156C148.431 21.156 146.835 20.136 146.835 17.796C146.835 15.456 148.431 14.436 149.931 14.436ZM159.399 14.544V21H158.307V15.492H156.135L156.039 17.052C155.883 19.656 155.319 21 153.819 21H153.615V20.052H153.735C154.311 20.052 154.863 19.428 154.995 16.752L155.091 14.544H159.399ZM162.34 16.824H163.876C165.568 16.824 166.288 17.484 166.288 18.864C166.288 20.46 165.352 21 163.864 21H161.248V14.544H162.34V16.824ZM162.34 20.052H163.768C164.728 20.052 165.22 19.728 165.22 18.864C165.22 18.012 164.716 17.772 163.744 17.772H162.34V20.052ZM175.474 14.544V21H167.518V14.544H168.61V20.052H170.95V14.544H172.042V20.052H174.382V14.544H175.474ZM178.01 17.796C178.01 19.524 178.946 20.196 179.942 20.196C180.938 20.196 181.874 19.452 181.874 17.796C181.874 16.068 180.938 15.396 179.942 15.396C178.946 15.396 178.01 16.032 178.01 17.796ZM179.942 14.436C181.442 14.436 183.038 15.456 183.038 17.796C183.038 20.136 181.442 21.156 179.942 21.156C178.442 21.156 176.846 20.136 176.846 17.796C176.846 15.456 178.442 14.436 179.942 14.436ZM188.268 12.3H189.12C189.024 13.02 188.568 13.752 187.2 13.752C185.88 13.752 185.376 13.02 185.316 12.3H186.168C186.216 12.684 186.504 13.032 187.212 13.032C187.92 13.032 188.22 12.684 188.268 12.3ZM188.832 21V16.128L185.496 21H184.404V14.544H185.496V19.416L188.832 14.544H189.924V21H188.832ZM196.531 21V13.356H193.699V12.3H200.587V13.356H197.755V21H196.531ZM201.237 17.796C201.237 19.524 202.173 20.196 203.169 20.196C204.165 20.196 205.101 19.452 205.101 17.796C205.101 16.068 204.165 15.396 203.169 15.396C202.173 15.396 201.237 16.032 201.237 17.796ZM203.169 14.436C204.669 14.436 206.265 15.456 206.265 17.796C206.265 20.136 204.669 21.156 203.169 21.156C201.669 21.156 200.073 20.136 200.073 17.796C200.073 15.456 201.669 14.436 203.169 14.436ZM212.637 14.544V21H211.545V15.492H209.373L209.277 17.052C209.121 19.656 208.557 21 207.057 21H206.853V20.052H206.973C207.549 20.052 208.101 19.428 208.233 16.752L208.329 14.544H212.637ZM221.543 14.544V21H220.475V15.816L218.399 21H217.619L215.555 15.888V21H214.487V14.544H216.047L218.051 19.512L219.983 14.544H221.543ZM227.401 18.3V17.892C225.421 18.084 224.161 18.384 224.161 19.272C224.161 19.884 224.629 20.292 225.409 20.292C226.429 20.292 227.401 19.824 227.401 18.3ZM225.169 21.156C223.957 21.156 222.949 20.484 222.949 19.296C222.949 17.772 224.677 17.316 227.317 17.028V16.872C227.317 15.684 226.669 15.3 225.853 15.3C224.941 15.3 224.425 15.78 224.377 16.584H223.249C223.345 15.192 224.593 14.412 225.841 14.412C227.629 14.412 228.421 15.252 228.409 17.076L228.397 18.564C228.385 19.656 228.433 20.388 228.565 21H227.461C227.425 20.76 227.389 20.496 227.377 20.112C226.981 20.784 226.321 21.156 225.169 21.156ZM234.848 21H233.756V18.384C233 18.564 232.424 18.648 231.836 18.648C230.48 18.648 229.772 18.048 229.772 16.644V14.544H230.864V16.416C230.864 17.376 231.32 17.7 232.232 17.7C232.652 17.7 233.156 17.628 233.756 17.484V14.544H234.848V21ZM237.498 13.488V12.3H238.59V13.488H237.498ZM240.246 12.3H241.35V13.488H240.246V12.3ZM242.334 18.132H237.366C237.402 19.524 238.41 20.196 239.358 20.196C240.318 20.196 240.846 19.764 241.122 19.128H242.25C241.962 20.232 240.93 21.156 239.358 21.156C237.318 21.156 236.19 19.692 236.19 17.784C236.19 15.732 237.558 14.436 239.322 14.436C241.302 14.436 242.466 16.08 242.334 18.132ZM239.322 15.372C238.362 15.372 237.474 15.9 237.378 17.196H241.182C241.146 16.284 240.486 15.372 239.322 15.372ZM243.678 14.544H246.486C247.782 14.544 248.838 14.88 248.838 16.188C248.838 16.872 248.538 17.352 247.938 17.604C248.61 17.796 249.102 18.252 249.102 19.116C249.102 20.46 248.058 21 246.678 21H243.678V14.544ZM244.77 17.256H246.414C247.218 17.256 247.698 17.04 247.698 16.308C247.698 15.636 247.194 15.492 246.378 15.492H244.77V17.256ZM244.77 18.156V20.052H246.51C247.47 20.052 247.962 19.776 247.962 19.104C247.962 18.384 247.482 18.156 246.474 18.156H244.77ZM252.997 14.436C254.581 14.436 255.541 15.6 255.697 16.704H254.593C254.437 15.936 253.777 15.396 252.925 15.396C251.965 15.396 251.065 16.152 251.065 17.772C251.065 19.404 251.965 20.196 252.925 20.196C253.849 20.196 254.485 19.572 254.641 18.9H255.769C255.541 20.112 254.401 21.156 252.889 21.156C251.029 21.156 249.877 19.752 249.877 17.784C249.877 15.864 251.089 14.436 252.997 14.436ZM261.213 21L258.993 18.132H258.165V21H257.061V14.544H258.165V17.184H258.969L261.021 14.544H262.317L259.881 17.592L262.569 21H261.213ZM268.04 21V16.128L264.704 21H263.612V14.544H264.704V19.416L268.04 14.544H269.132V21H268.04ZM274.847 12.3H275.699C275.603 13.02 275.147 13.752 273.779 13.752C272.459 13.752 271.955 13.02 271.895 12.3H272.747C272.795 12.684 273.083 13.032 273.791 13.032C274.499 13.032 274.799 12.684 274.847 12.3ZM275.411 21V16.128L272.075 21H270.983V14.544H272.075V19.416L275.411 14.544H276.503V21H275.411ZM286.517 14.544V21H285.425V15.492H282.293V21H281.201V14.544H286.517ZM294.002 18.132H289.034C289.07 19.524 290.078 20.196 291.026 20.196C291.986 20.196 292.514 19.764 292.79 19.128H293.918C293.63 20.232 292.598 21.156 291.026 21.156C288.986 21.156 287.858 19.692 287.858 17.784C287.858 15.732 289.226 14.436 290.99 14.436C292.97 14.436 294.134 16.08 294.002 18.132ZM290.99 15.372C290.03 15.372 289.142 15.9 289.046 17.196H292.85C292.814 16.284 292.154 15.372 290.99 15.372ZM295.346 14.544H296.438V15.564C296.834 14.88 297.506 14.436 298.55 14.436C300.038 14.436 301.31 15.684 301.31 17.796C301.31 19.944 300.038 21.156 298.55 21.156C297.506 21.156 296.834 20.712 296.438 20.028V23.1H295.346V14.544ZM296.39 17.796C296.39 19.5 297.302 20.22 298.274 20.22C299.39 20.22 300.122 19.344 300.122 17.796C300.122 16.248 299.39 15.372 298.274 15.372C297.302 15.372 296.39 16.092 296.39 17.796ZM303.66 21H302.28V19.62H303.66V21ZM306.997 17.7C306.997 20.136 306.073 22.044 305.341 23.1H304.441C305.245 21.804 305.869 19.968 305.869 17.7C305.869 15.444 305.233 13.572 304.441 12.3H305.341C306.073 13.344 306.997 15.264 306.997 17.7ZM308.163 21V19.62H309.543V21.096L308.811 22.668H308.115L308.751 21H308.163ZM316.424 21H315.332V14.196H313.316V13.452C314.552 13.416 315.212 13.236 315.68 12.3H316.424V21ZM321.076 21H319.984V14.196H317.968V13.452C319.204 13.416 319.864 13.236 320.332 12.3H321.076V21ZM327.342 21H325.962V19.62H327.342V21ZM330.282 21H328.902V19.62H330.282V21ZM324.402 21H323.022V19.62H324.402V21Z" fill="#1D1D1D"/>
<path d="M4.208 38.2V38.512H1.088V44H0.76V38.2H4.208ZM4.5005 39.696H4.8125V40.648C5.0765 40.008 5.6365 39.624 6.3645 39.624C7.3805 39.624 8.1885 40.432 8.1885 41.864C8.1885 43.296 7.3805 44.104 6.3645 44.104C5.6365 44.104 5.0765 43.72 4.8125 43.08V45.4H4.5005V39.696ZM4.7805 41.864C4.7805 43.272 5.5805 43.816 6.3245 43.816C7.1805 43.816 7.8605 43.12 7.8605 41.864C7.8605 40.608 7.1805 39.912 6.3245 39.912C5.5805 39.912 4.7805 40.464 4.7805 41.864ZM12.0509 44L12.0189 43.168C11.7389 43.8 11.1549 44.104 10.3549 44.104C9.59488 44.104 8.91488 43.688 8.91488 42.96C8.91488 41.936 9.93088 41.68 12.0029 41.424V41.176C12.0029 40.056 11.3629 39.88 10.6989 39.88C9.83488 39.88 9.44288 40.368 9.37888 40.944H9.04288C9.13088 40.176 9.74688 39.592 10.7069 39.592C11.6669 39.592 12.3149 39.952 12.3149 41.176V41.512C12.3149 41.744 12.3069 41.992 12.3069 42.216V42.52C12.3069 43.064 12.3229 43.512 12.3549 44H12.0509ZM12.0189 42.144V41.712C9.93888 41.944 9.25088 42.224 9.25088 42.944C9.25088 43.488 9.76288 43.816 10.4269 43.816C11.2269 43.816 12.0189 43.4 12.0189 42.144ZM15.6914 38.2V39.704C17.0034 39.704 17.8514 40.432 17.8514 41.864C17.8514 43.304 16.9874 44.024 15.6914 44.024V45.4H15.3794V44.024C14.0834 44.024 13.2194 43.304 13.2194 41.864C13.2194 40.432 14.0834 39.704 15.3794 39.704V38.2H15.6914ZM15.3794 43.736V39.992C14.2194 39.992 13.5394 40.64 13.5394 41.864C13.5394 43.104 14.2194 43.736 15.3794 43.736ZM15.6914 39.992V43.736C16.8514 43.736 17.5314 43.104 17.5314 41.864C17.5314 40.64 16.8674 39.992 15.6914 39.992ZM22.2829 39.696V44H21.9709V40.152L19.2109 44H18.8989V39.696H19.2109V43.512L21.9709 39.696H22.2829ZM26.4488 44L24.7128 41.944H23.9688V44H23.6568V39.696H23.9688V41.672H24.6568L26.2408 39.696H26.6088L24.9528 41.76L26.8248 44H26.4488ZM29.4927 39.696H29.8047V40.648C30.0687 40.008 30.6287 39.624 31.3567 39.624C32.3727 39.624 33.1807 40.432 33.1807 41.864C33.1807 43.296 32.3727 44.104 31.3567 44.104C30.6287 44.104 30.0687 43.72 29.8047 43.08V45.4H29.4927V39.696ZM29.7727 41.864C29.7727 43.272 30.5727 43.816 31.3167 43.816C32.1727 43.816 32.8527 43.12 32.8527 41.864C32.8527 40.608 32.1727 39.912 31.3167 39.912C30.5727 39.912 29.7727 40.464 29.7727 41.864ZM37.0431 44L37.0111 43.168C36.7311 43.8 36.1471 44.104 35.3471 44.104C34.5871 44.104 33.9071 43.688 33.9071 42.96C33.9071 41.936 34.9231 41.68 36.9951 41.424V41.176C36.9951 40.056 36.3551 39.88 35.6911 39.88C34.8271 39.88 34.4351 40.368 34.3711 40.944H34.0351C34.1231 40.176 34.7391 39.592 35.6991 39.592C36.6591 39.592 37.3071 39.952 37.3071 41.176V41.512C37.3071 41.744 37.2991 41.992 37.2991 42.216V42.52C37.2991 43.064 37.3151 43.512 37.3471 44H37.0431ZM37.0111 42.144V41.712C34.9311 41.944 34.2431 42.224 34.2431 42.944C34.2431 43.488 34.7551 43.816 35.4191 43.816C36.2191 43.816 37.0111 43.4 37.0111 42.144ZM40.2516 39.936C41.1796 39.936 41.9796 40.6 41.9796 41.984C41.9796 43.352 41.2356 44.104 40.2116 44.104C39.1556 44.104 38.3956 43.384 38.3956 41.984V41.272C38.3956 39.728 38.8996 38.744 40.2436 38.488L41.7796 38.208V38.488L40.2916 38.776C39.2036 38.992 38.7076 39.784 38.6836 40.96C38.9396 40.28 39.5716 39.936 40.2516 39.936ZM40.2116 43.816C41.0996 43.816 41.6436 43.16 41.6436 42C41.6436 40.816 41.0356 40.224 40.2356 40.224C39.4196 40.224 38.6996 40.76 38.6996 41.992C38.6996 43.144 39.2836 43.816 40.2116 43.816ZM43.0239 41.864C43.0239 43.176 43.6959 43.816 44.6159 43.816C45.5359 43.816 46.2079 43.176 46.2079 41.864C46.2079 40.552 45.5359 39.912 44.6159 39.912C43.6959 39.912 43.0239 40.552 43.0239 41.864ZM42.6959 41.864C42.6959 40.352 43.5599 39.624 44.6159 39.624C45.6799 39.624 46.5439 40.352 46.5439 41.864C46.5439 43.384 45.6799 44.104 44.6159 44.104C43.5599 44.104 42.6959 43.384 42.6959 41.864ZM50.4561 39.968H48.7761V44H48.4641V39.968H46.7841V39.696H50.4561V39.968ZM51.5781 41.352H52.6421C53.6581 41.352 54.1061 41.776 54.1061 42.632C54.1061 43.656 53.4181 44 52.5861 44H51.2661V39.696H51.5781V41.352ZM51.5781 43.728H52.5781C53.3701 43.728 53.7621 43.368 53.7621 42.64C53.7621 41.88 53.3701 41.624 52.5381 41.624H51.5781V43.728ZM55.2341 44H54.9221V39.696H55.2341V44ZM57.0019 40.528H56.6899V39.696H57.0019V40.528ZM57.0019 44H56.6899V43.168H57.0019V44Z" fill="#1D1D1D"/>
<path d="M7.944 59H6.72V51.356H2.376V59H1.152V50.3H7.944V59ZM15.3938 59H14.3018V56.18H11.1098V59H10.0178V52.544H11.1098V55.232H14.3018V52.544H15.3938V59ZM25.3402 54.644C25.3402 52.232 24.4762 51.056 23.1202 51.056C21.7402 51.056 20.9002 52.232 20.9002 54.644C20.9002 57.08 21.7402 58.244 23.1202 58.244C24.5002 58.244 25.3402 57.08 25.3402 54.644ZM26.5042 54.644C26.5042 57.392 25.4362 59.156 23.1202 59.156C20.8042 59.156 19.7362 57.392 19.7362 54.644C19.7362 51.896 20.8042 50.144 23.1202 50.144C25.4362 50.144 26.5042 51.896 26.5042 54.644ZM33.2738 54.644C33.2738 52.232 32.4098 51.056 31.0538 51.056C29.6738 51.056 28.8338 52.232 28.8338 54.644C28.8338 57.08 29.6738 58.244 31.0538 58.244C32.4338 58.244 33.2738 57.08 33.2738 54.644ZM34.4378 54.644C34.4378 57.392 33.3698 59.156 31.0538 59.156C28.7378 59.156 27.6698 57.392 27.6698 54.644C27.6698 51.896 28.7378 50.144 31.0538 50.144C33.3698 50.144 34.4378 51.896 34.4378 54.644ZM37.1873 53.924H35.8073V52.544H37.1873V53.924ZM37.1873 59H35.8073V57.62H37.1873V59ZM44.1488 54.644C44.1488 52.232 43.2848 51.056 41.9288 51.056C40.5488 51.056 39.7088 52.232 39.7088 54.644C39.7088 57.08 40.5488 58.244 41.9288 58.244C43.3088 58.244 44.1488 57.08 44.1488 54.644ZM45.3128 54.644C45.3128 57.392 44.2448 59.156 41.9288 59.156C39.6128 59.156 38.5448 57.392 38.5448 54.644C38.5448 51.896 39.6128 50.144 41.9288 50.144C44.2448 50.144 45.3128 51.896 45.3128 54.644ZM52.0823 54.644C52.0823 52.232 51.2183 51.056 49.8623 51.056C48.4823 51.056 47.6423 52.232 47.6423 54.644C47.6423 57.08 48.4823 58.244 49.8623 58.244C51.2423 58.244 52.0823 57.08 52.0823 54.644ZM53.2463 54.644C53.2463 57.392 52.1783 59.156 49.8623 59.156C47.5463 59.156 46.4783 57.392 46.4783 54.644C46.4783 51.896 47.5463 50.144 49.8623 50.144C52.1783 50.144 53.2463 51.896 53.2463 54.644ZM58.1679 56.228H54.3519V55.196H58.1679V56.228ZM61.5879 59H60.4959V52.196H58.4799V51.452C59.7159 51.416 60.3759 51.236 60.8439 50.3H61.5879V59ZM68.9339 54.644C68.9339 52.232 68.0699 51.056 66.7139 51.056C65.3339 51.056 64.4939 52.232 64.4939 54.644C64.4939 57.08 65.3339 58.244 66.7139 58.244C68.0939 58.244 68.9339 57.08 68.9339 54.644ZM70.0979 54.644C70.0979 57.392 69.0299 59.156 66.7139 59.156C64.3979 59.156 63.3299 57.392 63.3299 54.644C63.3299 51.896 64.3979 50.144 66.7139 50.144C69.0299 50.144 70.0979 51.896 70.0979 54.644ZM72.8475 53.924H71.4675V52.544H72.8475V53.924ZM72.8475 59H71.4675V57.62H72.8475V59ZM79.8089 54.644C79.8089 52.232 78.9449 51.056 77.5889 51.056C76.2089 51.056 75.3689 52.232 75.3689 54.644C75.3689 57.08 76.2089 58.244 77.5889 58.244C78.9689 58.244 79.8089 57.08 79.8089 54.644ZM80.9729 54.644C80.9729 57.392 79.9049 59.156 77.5889 59.156C75.2729 59.156 74.2049 57.392 74.2049 54.644C74.2049 51.896 75.2729 50.144 77.5889 50.144C79.9049 50.144 80.9729 51.896 80.9729 54.644ZM87.7425 54.644C87.7425 52.232 86.8785 51.056 85.5225 51.056C84.1425 51.056 83.3025 52.232 83.3025 54.644C83.3025 57.08 84.1425 58.244 85.5225 58.244C86.9025 58.244 87.7425 57.08 87.7425 54.644ZM88.9065 54.644C88.9065 57.392 87.8385 59.156 85.5225 59.156C83.2065 59.156 82.1385 57.392 82.1385 54.644C82.1385 51.896 83.2065 50.144 85.5225 50.144C87.8385 50.144 88.9065 51.896 88.9065 54.644ZM90.2761 59V57.62H91.6561V59.096L90.9241 60.668H90.2281L90.8641 59H90.2761ZM91.6561 53.924H90.2761V52.544H91.6561V53.924ZM96.4372 59V50.3H99.5692C101.189 50.3 102.629 50.72 102.629 52.448C102.629 53.276 102.281 54.02 101.669 54.368C102.497 54.716 102.989 55.364 102.989 56.432C102.989 58.28 101.609 59 99.8692 59H96.4372ZM97.6612 54.992V57.968H99.8812C101.129 57.968 101.729 57.44 101.729 56.444C101.729 55.424 101.117 54.992 99.8092 54.992H97.6612ZM97.6612 51.332V54.02H99.7612C100.769 54.02 101.393 53.636 101.393 52.616C101.393 51.716 100.733 51.332 99.7612 51.332H97.6612ZM109.176 53.492H106.968V59H105.876V53.492H103.668V52.544H109.176V53.492ZM115.459 59H114.367V52.196H112.351V51.452C113.587 51.416 114.247 51.236 114.715 50.3H115.459V59ZM120.381 50.144C122.157 50.144 123.285 51.08 123.285 52.364C123.285 53.084 122.949 53.888 122.085 54.368C123.201 54.812 123.549 55.76 123.549 56.552C123.549 58.22 122.157 59.156 120.381 59.156C118.593 59.156 117.201 58.22 117.201 56.552C117.201 55.772 117.537 54.812 118.677 54.368C117.813 53.888 117.477 53.084 117.477 52.364C117.477 51.08 118.605 50.144 120.381 50.144ZM120.381 54.824C119.133 54.824 118.365 55.532 118.365 56.552C118.365 57.572 119.133 58.244 120.381 58.244C121.617 58.244 122.397 57.572 122.397 56.552C122.397 55.532 121.617 54.824 120.381 54.824ZM122.181 52.496C122.181 51.632 121.473 51.056 120.381 51.056C119.277 51.056 118.569 51.632 118.569 52.496C118.569 53.372 119.289 54.02 120.381 54.02C121.473 54.02 122.181 53.372 122.181 52.496ZM126.297 53.924H124.917V52.544H126.297V53.924ZM126.297 59H124.917V57.62H126.297V59ZM133.258 54.644C133.258 52.232 132.394 51.056 131.038 51.056C129.658 51.056 128.818 52.232 128.818 54.644C128.818 57.08 129.658 58.244 131.038 58.244C132.418 58.244 133.258 57.08 133.258 54.644ZM134.422 54.644C134.422 57.392 133.354 59.156 131.038 59.156C128.722 59.156 127.654 57.392 127.654 54.644C127.654 51.896 128.722 50.144 131.038 50.144C133.354 50.144 134.422 51.896 134.422 54.644ZM141.192 54.644C141.192 52.232 140.328 51.056 138.972 51.056C137.592 51.056 136.752 52.232 136.752 54.644C136.752 57.08 137.592 58.244 138.972 58.244C140.352 58.244 141.192 57.08 141.192 54.644ZM142.356 54.644C142.356 57.392 141.288 59.156 138.972 59.156C136.656 59.156 135.588 57.392 135.588 54.644C135.588 51.896 136.656 50.144 138.972 50.144C141.288 50.144 142.356 51.896 142.356 54.644ZM147.277 56.228H143.461V55.196H147.277V56.228ZM151.198 50.144C152.806 50.144 153.958 50.948 153.958 52.424C153.958 54.44 151.858 56.216 149.422 57.98H154.198V59H147.934V58.016C151.006 55.748 152.806 54.116 152.806 52.568C152.806 51.656 152.218 51.056 151.174 51.056C150.238 51.056 149.338 51.572 149.302 53.012H148.174C148.138 51.284 149.338 50.144 151.198 50.144ZM158.036 58.244C159.188 58.244 160.004 57.656 160.004 56.564C160.004 55.316 158.888 54.908 157.496 54.908H157.316V53.912H157.46C158.984 53.912 159.776 53.492 159.776 52.472C159.776 51.548 159.008 51.056 158.084 51.056C156.92 51.056 156.284 51.752 156.188 52.748H155.06C155.192 51.212 156.284 50.144 158.108 50.144C159.608 50.144 160.928 50.756 160.928 52.352C160.928 53.252 160.424 53.996 159.512 54.368C160.808 54.788 161.168 55.628 161.168 56.552C161.168 58.304 159.692 59.156 158.024 59.156C155.96 59.156 155.06 57.884 154.928 56.432H156.056C156.188 57.5 156.8 58.244 158.036 58.244ZM163.855 53.924H162.475V52.544H163.855V53.924ZM163.855 59H162.475V57.62H163.855V59ZM168.261 58.244C169.305 58.244 170.205 57.488 170.205 56.144C170.205 54.704 169.197 54.08 168.249 54.08C167.349 54.08 166.761 54.608 166.569 55.04L165.477 54.98L166.041 50.3H171.033V51.32H166.929L166.629 53.792C167.097 53.348 167.781 53.132 168.501 53.132C170.025 53.132 171.357 54.212 171.357 56.132C171.357 58.124 169.881 59.156 168.261 59.156C166.257 59.156 165.321 57.884 165.165 56.48H166.293C166.473 57.584 167.049 58.244 168.261 58.244ZM177.386 53.084C177.386 51.884 176.654 51.056 175.502 51.056C174.374 51.056 173.594 51.896 173.594 53.084C173.594 54.272 174.374 55.136 175.49 55.136C176.63 55.136 177.386 54.272 177.386 53.084ZM175.382 58.244C176.726 58.244 177.47 56.9 177.53 54.884C177.134 55.568 176.378 56.096 175.226 56.096C173.618 56.096 172.43 54.896 172.43 53.132C172.43 51.524 173.63 50.144 175.49 50.144C177.662 50.144 178.658 51.656 178.658 54.344C178.658 56.792 177.758 59.156 175.262 59.156C173.558 59.156 172.766 58.088 172.574 56.984H173.762C173.906 57.764 174.482 58.244 175.382 58.244ZM180.03 59V57.62H181.41V59.096L180.678 60.668H179.982L180.618 59H180.03ZM181.41 53.924H180.03V52.544H181.41V53.924ZM192.179 56.228H193.367C192.983 58.148 191.483 59.156 189.599 59.156C187.103 59.156 185.651 57.272 185.651 54.632C185.651 51.944 187.247 50.144 189.695 50.144C191.495 50.144 192.935 51.212 193.319 53.072H192.131C191.879 51.98 191.015 51.176 189.635 51.176C188.099 51.176 186.899 52.376 186.899 54.632C186.899 56.84 188.051 58.124 189.671 58.124C191.063 58.124 191.903 57.344 192.179 56.228ZM194.67 52.544H195.762V53.564C196.158 52.88 196.83 52.436 197.874 52.436C199.362 52.436 200.634 53.684 200.634 55.796C200.634 57.944 199.362 59.156 197.874 59.156C196.83 59.156 196.158 58.712 195.762 58.028V61.1H194.67V52.544ZM195.714 55.796C195.714 57.5 196.626 58.22 197.598 58.22C198.714 58.22 199.446 57.344 199.446 55.796C199.446 54.248 198.714 53.372 197.598 53.372C196.626 53.372 195.714 54.092 195.714 55.796ZM210.086 54.644C210.086 52.232 209.222 51.056 207.866 51.056C206.486 51.056 205.646 52.232 205.646 54.644C205.646 57.08 206.486 58.244 207.866 58.244C209.246 58.244 210.086 57.08 210.086 54.644ZM211.25 54.644C211.25 57.392 210.182 59.156 207.866 59.156C205.55 59.156 204.482 57.392 204.482 54.644C204.482 51.896 205.55 50.144 207.866 50.144C210.182 50.144 211.25 51.896 211.25 54.644ZM218.02 54.644C218.02 52.232 217.156 51.056 215.8 51.056C214.42 51.056 213.58 52.232 213.58 54.644C213.58 57.08 214.42 58.244 215.8 58.244C217.18 58.244 218.02 57.08 218.02 54.644ZM219.184 54.644C219.184 57.392 218.116 59.156 215.8 59.156C213.484 59.156 212.416 57.392 212.416 54.644C212.416 51.896 213.484 50.144 215.8 50.144C218.116 50.144 219.184 51.896 219.184 54.644ZM221.933 53.924H220.553V52.544H221.933V53.924ZM221.933 59H220.553V57.62H221.933V59ZM228.895 54.644C228.895 52.232 228.031 51.056 226.675 51.056C225.295 51.056 224.455 52.232 224.455 54.644C224.455 57.08 225.295 58.244 226.675 58.244C228.055 58.244 228.895 57.08 228.895 54.644ZM230.059 54.644C230.059 57.392 228.991 59.156 226.675 59.156C224.359 59.156 223.291 57.392 223.291 54.644C223.291 51.896 224.359 50.144 226.675 50.144C228.991 50.144 230.059 51.896 230.059 54.644ZM236.828 54.644C236.828 52.232 235.964 51.056 234.608 51.056C233.228 51.056 232.388 52.232 232.388 54.644C232.388 57.08 233.228 58.244 234.608 58.244C235.988 58.244 236.828 57.08 236.828 54.644ZM237.992 54.644C237.992 57.392 236.924 59.156 234.608 59.156C232.292 59.156 231.224 57.392 231.224 54.644C231.224 51.896 232.292 50.144 234.608 50.144C236.924 50.144 237.992 51.896 237.992 54.644ZM242.914 56.228H239.098V55.196H242.914V56.228ZM246.334 59H245.242V52.196H243.226V51.452C244.462 51.416 245.122 51.236 245.59 50.3H246.334V59ZM253.68 54.644C253.68 52.232 252.816 51.056 251.46 51.056C250.08 51.056 249.24 52.232 249.24 54.644C249.24 57.08 250.08 58.244 251.46 58.244C252.84 58.244 253.68 57.08 253.68 54.644ZM254.844 54.644C254.844 57.392 253.776 59.156 251.46 59.156C249.144 59.156 248.076 57.392 248.076 54.644C248.076 51.896 249.144 50.144 251.46 50.144C253.776 50.144 254.844 51.896 254.844 54.644ZM257.594 53.924H256.214V52.544H257.594V53.924ZM257.594 59H256.214V57.62H257.594V59ZM264.555 54.644C264.555 52.232 263.691 51.056 262.335 51.056C260.955 51.056 260.115 52.232 260.115 54.644C260.115 57.08 260.955 58.244 262.335 58.244C263.715 58.244 264.555 57.08 264.555 54.644ZM265.719 54.644C265.719 57.392 264.651 59.156 262.335 59.156C260.019 59.156 258.951 57.392 258.951 54.644C258.951 51.896 260.019 50.144 262.335 50.144C264.651 50.144 265.719 51.896 265.719 54.644ZM272.489 54.644C272.489 52.232 271.625 51.056 270.269 51.056C268.889 51.056 268.049 52.232 268.049 54.644C268.049 57.08 268.889 58.244 270.269 58.244C271.649 58.244 272.489 57.08 272.489 54.644ZM273.653 54.644C273.653 57.392 272.585 59.156 270.269 59.156C267.953 59.156 266.885 57.392 266.885 54.644C266.885 51.896 267.953 50.144 270.269 50.144C272.585 50.144 273.653 51.896 273.653 54.644ZM274.425 59V57.62H275.805V59.096L275.073 60.668H274.377L275.013 59H274.425ZM282.686 59H281.594V52.196H279.578V51.452C280.814 51.416 281.474 51.236 281.942 50.3H282.686V59ZM287.608 50.144C289.384 50.144 290.512 51.08 290.512 52.364C290.512 53.084 290.176 53.888 289.312 54.368C290.428 54.812 290.776 55.76 290.776 56.552C290.776 58.22 289.384 59.156 287.608 59.156C285.82 59.156 284.428 58.22 284.428 56.552C284.428 55.772 284.764 54.812 285.904 54.368C285.04 53.888 284.704 53.084 284.704 52.364C284.704 51.08 285.832 50.144 287.608 50.144ZM287.608 54.824C286.36 54.824 285.592 55.532 285.592 56.552C285.592 57.572 286.36 58.244 287.608 58.244C288.844 58.244 289.624 57.572 289.624 56.552C289.624 55.532 288.844 54.824 287.608 54.824ZM289.408 52.496C289.408 51.632 288.7 51.056 287.608 51.056C286.504 51.056 285.796 51.632 285.796 52.496C285.796 53.372 286.516 54.02 287.608 54.02C288.7 54.02 289.408 53.372 289.408 52.496ZM293.523 53.924H292.143V52.544H293.523V53.924ZM293.523 59H292.143V57.62H293.523V59ZM300.485 54.644C300.485 52.232 299.621 51.056 298.265 51.056C296.885 51.056 296.045 52.232 296.045 54.644C296.045 57.08 296.885 58.244 298.265 58.244C299.645 58.244 300.485 57.08 300.485 54.644ZM301.649 54.644C301.649 57.392 300.581 59.156 298.265 59.156C295.949 59.156 294.881 57.392 294.881 54.644C294.881 51.896 295.949 50.144 298.265 50.144C300.581 50.144 301.649 51.896 301.649 54.644ZM308.418 54.644C308.418 52.232 307.554 51.056 306.198 51.056C304.818 51.056 303.978 52.232 303.978 54.644C303.978 57.08 304.818 58.244 306.198 58.244C307.578 58.244 308.418 57.08 308.418 54.644ZM309.582 54.644C309.582 57.392 308.514 59.156 306.198 59.156C303.882 59.156 302.814 57.392 302.814 54.644C302.814 51.896 303.882 50.144 306.198 50.144C308.514 50.144 309.582 51.896 309.582 54.644ZM314.504 56.228H310.688V55.196H314.504V56.228ZM318.425 50.144C320.033 50.144 321.185 50.948 321.185 52.424C321.185 54.44 319.085 56.216 316.649 57.98H321.425V59H315.161V58.016C318.233 55.748 320.033 54.116 320.033 52.568C320.033 51.656 319.445 51.056 318.401 51.056C317.465 51.056 316.565 51.572 316.529 53.012H315.401C315.365 51.284 316.565 50.144 318.425 50.144ZM326.979 59H325.599V57.62H326.979V59ZM329.919 59H328.539V57.62H329.919V59ZM324.039 59H322.659V57.62H324.039V59Z" fill="#1D1D1D"/>
<path d="M0 60.32H321.881V61.16H0V60.32Z" fill="#1D1D1D"/>
</svg>
