<svg width="137" height="48" viewBox="0 0 137 48" fill="none" xmlns="http://www.w3.org/2000/svg">
<path d="M27.8644 14H20.1356C15.6424 14 12 17.6424 12 22.1356C12 26.6287 15.6424 30.2712 20.1356 30.2712H21.7627C22.886 30.2712 23.7966 31.1818 23.7966 32.3051V34.3389C32.2352 28.97 35.9471 27.6162 35.9994 22.2514C35.9997 22.2129 36 22.1743 36 22.1356C36 17.6424 32.3576 14 27.8644 14Z" stroke="#1D1D1D" stroke-width="2" stroke-miterlimit="10" stroke-linecap="round" stroke-linejoin="round"/>
<path d="M20.1355 20.1017H27.8643" stroke="#1D1D1D" stroke-width="2" stroke-miterlimit="10" stroke-linecap="round" stroke-linejoin="round"/>
<path d="M27.8643 24.1694H20.1355" stroke="#1D1D1D" stroke-width="2" stroke-miterlimit="10" stroke-linecap="round" stroke-linejoin="round"/>
<path d="M44 30L48.32 18.4H50.464L54.816 30H52.592L51.68 27.424H46.976L46.08 30H44ZM49.312 20.752L47.568 25.728H51.072L49.312 20.752ZM58.0125 18.4V30H55.9805V18.4H58.0125ZM72.731 18.4V30H70.699V25.6C69.787 25.792 68.667 25.968 67.707 25.968C65.099 25.968 63.787 24.752 63.787 22.32V18.4H65.819V21.792C65.819 23.632 66.603 24.256 68.379 24.256C69.067 24.256 69.947 24.176 70.699 24V18.4H72.731ZM80.4938 26.608V25.952C77.7738 26.208 76.6698 26.608 76.6698 27.584C76.6698 28.336 77.2938 28.784 78.2538 28.784C79.6618 28.784 80.4938 28.08 80.4938 26.608ZM77.8378 30.208C75.9658 30.208 74.6538 29.2 74.6538 27.632C74.6538 25.472 77.3098 24.96 80.4458 24.624V24.464C80.4458 22.992 79.6138 22.544 78.6538 22.544C77.6938 22.544 76.9738 23.056 76.9258 24.096H75.0538C75.1818 22.352 76.6378 21.136 78.7178 21.136C80.7818 21.136 82.3978 22.08 82.3498 24.832C82.3498 25.248 82.3177 26.272 82.3177 27.056C82.3177 28.144 82.3978 29.28 82.5738 30H80.8298C80.7658 29.632 80.7178 29.424 80.6698 28.832C80.1098 29.776 79.1178 30.208 77.8378 30.208ZM91.0941 22.896H88.1661V30H86.2621V22.896H83.3181V21.392H91.0941V22.896ZM96.359 26.544H91.143V24.832H96.359V26.544ZM104.117 22.896H100.181V30H98.277V21.392H104.117V22.896ZM113.384 21.392V30H111.48V24.032L107.384 30H105.48V21.392H107.384V27.392L111.48 21.392H113.384ZM124.279 28.512V32.032H122.551V30H116.263V32.032H114.535V28.512H114.999C115.959 28.512 116.455 27.264 116.599 24.128L116.727 21.392H122.999V28.512H124.279ZM121.095 28.512V22.896H118.407L118.327 24.352C118.199 26.64 117.895 27.856 117.207 28.512H121.095Z" fill="#1D1D1D"/>
</svg>
