<svg width="117" height="48" viewBox="0 0 117 48" fill="none" xmlns="http://www.w3.org/2000/svg">
<path fill-rule="evenodd" clip-rule="evenodd" d="M25.4379 14H22.8308V34H25.4379C29.8719 34 33.2593 29.3921 33.2593 24C33.2593 18.6079 29.8719 14 25.4379 14Z" fill="#E6B900"/>
<path fill-rule="evenodd" clip-rule="evenodd" d="M23.0807 14C18.6467 14 15.2593 18.6079 15.2593 24C15.2593 29.3921 18.6467 34 23.0807 34C27.5146 34 30.902 29.3921 30.902 24C30.902 18.6079 27.5146 14 23.0807 14Z" fill="#FFCF08"/>
<path d="M22.8865 19.2251C22.9564 19.0487 23.2039 19.0487 23.2738 19.2251L24.2875 21.783C24.3148 21.852 24.3762 21.9014 24.4489 21.9128L26.8823 22.2968C27.0436 22.3223 27.1147 22.5165 27.0085 22.6417L25.2275 24.7422C25.1883 24.7884 25.1709 24.8494 25.1796 24.9096L25.5941 27.7677C25.6196 27.9439 25.4303 28.0706 25.2795 27.9782L23.1883 26.6974C23.1218 26.6567 23.0384 26.6567 22.972 26.6974L20.8808 27.9782C20.73 28.0706 20.5407 27.9439 20.5662 27.7677L20.9807 24.9096C20.9894 24.8494 20.972 24.7884 20.9328 24.7422L19.1518 22.6417C19.0456 22.5165 19.1167 22.3223 19.278 22.2968L21.7114 21.9128C21.7841 21.9014 21.8455 21.852 21.8728 21.783L22.8865 19.2251Z" fill="#CCA500"/>
<path d="M47.6513 20.08V22.896H50.0833C52.7073 22.896 54.4033 23.76 54.4033 26.352C54.4033 28.976 52.7233 30 49.9873 30H45.6193V18.4H53.5393V20.08H47.6513ZM47.6513 28.32H50.0513C51.5073 28.32 52.3073 27.664 52.3073 26.4C52.3073 25.04 51.4753 24.544 50.0033 24.544H47.6513V28.32ZM57.3952 25.712C57.3952 27.696 58.4512 28.656 59.6672 28.656C60.8832 28.656 61.9392 27.696 61.9392 25.712C61.9392 23.728 60.8832 22.752 59.6672 22.752C58.4512 22.752 57.3952 23.728 57.3952 25.712ZM59.6672 21.2C61.7632 21.2 63.9072 22.608 63.9072 25.712C63.9072 28.832 61.7632 30.208 59.6672 30.208C57.5712 30.208 55.4272 28.832 55.4272 25.712C55.4272 22.608 57.5712 21.2 59.6672 21.2ZM73.1999 30H71.2959V26.336H67.4559V30H65.5519V21.392H67.4559V24.832H71.2959V21.392H73.1999V30ZM76.033 32.8H75.169V31.344H75.889C76.721 31.344 77.073 31.28 77.457 30.16L77.553 29.952L74.433 21.392H76.513L78.465 27.568L80.417 21.392H82.369L79.345 29.984C78.529 32.208 77.969 32.8 76.033 32.8ZM86.9945 21.2C88.8825 21.2 90.5145 22.432 90.8505 24.336H88.9945C88.8185 23.424 88.0345 22.784 86.9945 22.784C85.7945 22.784 84.7385 23.664 84.7385 25.696C84.7385 27.744 85.8265 28.624 86.9465 28.624C87.8905 28.624 88.8025 28.208 89.0585 27.056H90.9145C90.5305 29.072 88.7545 30.208 86.9145 30.208C84.4185 30.208 82.7705 28.272 82.7705 25.712C82.7705 23.152 84.4185 21.2 86.9945 21.2ZM95.7538 30H92.4738V21.392H94.3778V24.288H95.7058C98.0738 24.288 99.0818 25.184 99.0818 27.088C99.0818 29.264 97.8658 30 95.7538 30ZM94.3778 25.792V28.496H95.4818C96.6338 28.496 97.1778 28.16 97.1778 27.072C97.1778 26.096 96.6178 25.792 95.4658 25.792H94.3778ZM102.218 30H100.314V21.392H102.218V30Z" fill="#1D1D1D"/>
</svg>
