<svg width="145" height="48" viewBox="0 0 145 48" fill="none" xmlns="http://www.w3.org/2000/svg">
<path d="M23.9929 17.1744L23.2302 17.8211L23.9929 18.7207L24.7556 17.8211L23.9929 17.1744ZM15.2667 24.6619L16.0589 24.0517L15.2667 24.6619ZM32.719 24.6619L31.9268 24.0517L32.719 24.6619ZM24.0226 32.9985L23.3564 33.7443C23.7359 34.0833 24.3094 34.0833 24.6889 33.7443L24.0226 32.9985ZM24.7556 16.5277C22.4636 13.8246 18.5024 12.9998 15.5041 15.5842L16.8098 17.0991C18.82 15.3664 21.5247 15.8098 23.2302 17.8211L24.7556 16.5277ZM15.5041 15.5842C12.6008 18.0866 12.1813 22.2954 14.4745 25.2722L16.0589 24.0517C14.4189 21.9227 14.7045 18.9137 16.8098 17.0991L15.5041 15.5842ZM33.5112 25.2722C35.7957 22.3067 35.4412 18.0654 32.4713 15.5753L31.1863 17.1079C33.3111 18.8894 33.5756 21.9114 31.9268 24.0517L33.5112 25.2722ZM32.4713 15.5753C29.4402 13.0339 25.5297 13.8157 23.2302 16.5277L24.7556 17.8211C26.4535 15.8187 29.1228 15.3778 31.1863 17.1079L32.4713 15.5753ZM14.4745 25.2722C15.3541 26.414 17.2056 28.1947 18.973 29.8191C20.7613 31.4628 22.558 33.031 23.3564 33.7443L24.6889 32.2528C23.8654 31.5172 22.1017 29.9783 20.3264 28.3466C18.53 26.6956 16.8144 25.0324 16.0589 24.0517L14.4745 25.2722ZM24.6889 33.7443C25.4928 33.0261 27.2697 31.4622 29.0456 29.8163C30.7992 28.191 32.6333 26.4119 33.5112 25.2722L31.9268 24.0517C31.1697 25.0346 29.4665 26.6993 27.6861 28.3494C25.928 29.9789 24.1743 31.5221 23.3564 32.2528L24.6889 33.7443Z" fill="#1D1D1D"/>
<path d="M52.352 30H50.288L47.344 20.608V30H45.36V18.4H48.512L51.328 27.648L54.128 18.4H57.28V30H55.296V20.608L52.352 30ZM61.1046 25.712C61.1046 27.696 62.1606 28.656 63.3766 28.656C64.5926 28.656 65.6486 27.696 65.6486 25.712C65.6486 23.728 64.5926 22.752 63.3766 22.752C62.1606 22.752 61.1046 23.728 61.1046 25.712ZM63.3766 21.2C65.4726 21.2 67.6166 22.608 67.6166 25.712C67.6166 28.832 65.4726 30.208 63.3766 30.208C61.2806 30.208 59.1366 28.832 59.1366 25.712C59.1366 22.608 61.2806 21.2 63.3766 21.2ZM77.1654 21.392V30H75.2614V24.032L71.1654 30H69.2614V21.392H71.1654V27.392L75.2614 21.392H77.1654ZM90.4838 21.392V30H88.5798V22.896H84.8998V30H82.9958V21.392H90.4838ZM100.057 30H98.1526V22.896H95.6246L95.4966 24.752C95.2566 28.352 94.2966 30 92.3126 30H91.9606V28.496H92.1526C92.8566 28.496 93.5126 27.744 93.6886 24.48L93.8486 21.392H100.057V30ZM107.603 26.608V25.952C104.883 26.208 103.779 26.608 103.779 27.584C103.779 28.336 104.403 28.784 105.363 28.784C106.771 28.784 107.603 28.08 107.603 26.608ZM104.947 30.208C103.075 30.208 101.763 29.2 101.763 27.632C101.763 25.472 104.419 24.96 107.555 24.624V24.464C107.555 22.992 106.723 22.544 105.763 22.544C104.803 22.544 104.083 23.056 104.035 24.096H102.163C102.291 22.352 103.747 21.136 105.827 21.136C107.891 21.136 109.507 22.08 109.459 24.832C109.459 25.248 109.427 26.272 109.427 27.056C109.427 28.144 109.507 29.28 109.683 30H107.939C107.875 29.632 107.827 29.424 107.779 28.832C107.219 29.776 106.227 30.208 104.947 30.208ZM119.113 30H117.209V26.336H113.369V30H111.465V21.392H113.369V24.832H117.209V21.392H119.113V30ZM124.698 30H121.418V21.392H123.322V24.288H124.65C127.018 24.288 128.026 25.184 128.026 27.088C128.026 29.264 126.81 30 124.698 30ZM123.322 25.792V28.496H124.426C125.578 28.496 126.122 28.16 126.122 27.072C126.122 26.096 125.562 25.792 124.41 25.792H123.322ZM131.162 30H129.258V21.392H131.162V30Z" fill="#1D1D1D"/>
</svg>
