<svg width="230" height="48" viewBox="0 0 230 48" fill="none" xmlns="http://www.w3.org/2000/svg">
<path d="M22 31H18.5C17.137 31 16 30.153 16 28.8V14.4C16 14.176 16.176 14 16.4 14H31.6C31.824 14 32 14.176 32 14.4V28.8C32 30.153 30.863 31 29.5 31H28C26.542 31 25.605 31.276 24.4 32.5C24.137 32.753 23.77 33.168 23.3 33.745C23.1594 33.8955 22.9658 33.9853 22.7601 33.9956C22.5545 34.0058 22.3529 33.9357 22.198 33.8C22.035 33.655 22 33.454 22 33.237V31ZM18 16V28.4C18 28.763 18.211 29 18.6 29H23.7V30.7C25.007 29.54 26.288 29 28 29H29.4C29.789 29 30 28.763 30 28.4V16H18Z" fill="#1D1D1D"/>
<path d="M54.672 30H52.64V20.096H47.392V30H45.36V18.4H54.672V30ZM58.9273 25.696C58.9273 27.68 59.9033 28.656 61.1513 28.656C62.4953 28.656 63.2793 27.536 63.2793 25.696C63.2793 23.888 62.4953 22.752 61.1513 22.752C59.9033 22.752 58.9273 23.712 58.9273 25.696ZM57.1033 21.392H59.0073V22.544C59.5193 21.696 60.4153 21.2 61.5673 21.2C63.6793 21.2 65.2633 22.944 65.2633 25.696C65.2633 28.464 63.6793 30.208 61.5673 30.208C60.4153 30.208 59.5193 29.712 59.0073 28.864V32.8H57.1033V21.392ZM68.3078 25.712C68.3078 27.696 69.3638 28.656 70.5798 28.656C71.7958 28.656 72.8518 27.696 72.8518 25.712C72.8518 23.728 71.7958 22.752 70.5798 22.752C69.3638 22.752 68.3078 23.728 68.3078 25.712ZM70.5798 21.2C72.6758 21.2 74.8198 22.608 74.8198 25.712C74.8198 28.832 72.6758 30.208 70.5798 30.208C68.4838 30.208 66.3398 28.832 66.3398 25.712C66.3398 22.608 68.4838 21.2 70.5798 21.2ZM84.2543 26.24H77.8383C77.9663 27.84 79.0863 28.624 80.1743 28.624C81.1823 28.624 81.9503 28.24 82.2863 27.424H84.1583C83.7743 28.8 82.4623 30.208 80.2543 30.208C77.4863 30.208 75.9023 28.112 75.9023 25.632C75.9023 23.04 77.6783 21.2 80.1263 21.2C82.7663 21.2 84.4303 23.36 84.2543 26.24ZM80.1263 22.688C79.2303 22.688 78.0143 23.232 77.8383 24.848H82.3183C82.2703 23.504 81.2463 22.688 80.1263 22.688ZM91.5656 30L88.7336 26.24H87.8376V30H85.9176V21.392H87.8376V24.736H88.8776L91.3576 21.392H93.5336L90.2856 25.568L93.7576 30H91.5656ZM101.969 22.896H99.0411V30H97.1371V22.896H94.1931V21.392H101.969V22.896ZM106.635 30H103.355V21.392H105.259V24.288H106.587C108.955 24.288 109.963 25.184 109.963 27.088C109.963 29.264 108.747 30 106.635 30ZM105.259 25.792V28.496H106.363C107.515 28.496 108.059 28.16 108.059 27.072C108.059 26.096 107.499 25.792 106.347 25.792H105.259ZM113.099 30H111.195V21.392H113.099V30ZM126.29 30H124.226L121.282 20.608V30H119.298V18.4H122.45L125.266 27.648L128.066 18.4H131.218V30H129.234V20.608L126.29 30ZM135.042 25.712C135.042 27.696 136.098 28.656 137.314 28.656C138.53 28.656 139.586 27.696 139.586 25.712C139.586 23.728 138.53 22.752 137.314 22.752C136.098 22.752 135.042 23.728 135.042 25.712ZM137.314 21.2C139.41 21.2 141.554 22.608 141.554 25.712C141.554 28.832 139.41 30.208 137.314 30.208C135.218 30.208 133.074 28.832 133.074 25.712C133.074 22.608 135.218 21.2 137.314 21.2ZM146.845 21.2C148.733 21.2 150.365 22.432 150.701 24.336H148.845C148.669 23.424 147.885 22.784 146.845 22.784C145.645 22.784 144.589 23.664 144.589 25.696C144.589 27.744 145.677 28.624 146.797 28.624C147.741 28.624 148.653 28.208 148.909 27.056H150.765C150.381 29.072 148.605 30.208 146.765 30.208C144.269 30.208 142.621 28.272 142.621 25.712C142.621 23.152 144.269 21.2 146.845 21.2ZM158.907 22.896H155.979V30H154.075V22.896H151.131V21.392H158.907V22.896ZM160.821 32.8H159.957V31.344H160.677C161.509 31.344 161.861 31.28 162.245 30.16L162.341 29.952L159.221 21.392H161.301L163.253 27.568L165.205 21.392H167.157L164.133 29.984C163.317 32.208 162.757 32.8 160.821 32.8ZM170.13 25.696C170.13 27.68 171.106 28.656 172.354 28.656C173.698 28.656 174.482 27.536 174.482 25.696C174.482 23.888 173.698 22.752 172.354 22.752C171.106 22.752 170.13 23.712 170.13 25.696ZM168.306 21.392H170.21V22.544C170.722 21.696 171.618 21.2 172.77 21.2C174.882 21.2 176.466 22.944 176.466 25.696C176.466 28.464 174.882 30.208 172.77 30.208C171.618 30.208 170.722 29.712 170.21 28.864V32.8H168.306V21.392ZM186.009 21.392V30H184.105V24.032L180.009 30H178.105V21.392H180.009V27.392L184.105 21.392H186.009ZM193.464 25.456C194.408 25.728 194.984 26.32 194.984 27.472C194.984 29.376 193.32 30.208 191.16 30.208C189.272 30.208 187.592 29.392 187.288 27.2H189.112C189.288 28.176 190.008 28.8 191.224 28.8C192.44 28.8 193.08 28.32 193.08 27.568C193.08 26.672 192.472 26.336 191.384 26.336H189.976V24.848H191.288C192.232 24.848 192.824 24.528 192.824 23.776C192.824 22.992 192.36 22.592 191.288 22.592C190.216 22.592 189.352 23.104 189.208 24.176H187.384C187.688 22.144 189.416 21.168 191.32 21.168C193.192 21.168 194.712 21.92 194.712 23.648C194.712 24.496 194.296 25.088 193.464 25.456ZM206.829 21.392V30H204.989V23.184L202.461 30H200.989L198.461 23.216V30H196.621V21.392H199.501L201.757 27.536L203.949 21.392H206.829ZM214.541 26.608V25.952C211.821 26.208 210.717 26.608 210.717 27.584C210.717 28.336 211.341 28.784 212.301 28.784C213.709 28.784 214.541 28.08 214.541 26.608ZM211.885 30.208C210.013 30.208 208.701 29.2 208.701 27.632C208.701 25.472 211.357 24.96 214.493 24.624V24.464C214.493 22.992 213.661 22.544 212.701 22.544C211.741 22.544 211.021 23.056 210.973 24.096H209.101C209.229 22.352 210.685 21.136 212.765 21.136C214.829 21.136 216.445 22.08 216.397 24.832C216.397 25.248 216.365 26.272 216.365 27.056C216.365 28.144 216.445 29.28 216.621 30H214.877C214.813 29.632 214.765 29.424 214.717 28.832C214.157 29.776 213.165 30.208 211.885 30.208Z" fill="#1D1D1D"/>
</svg>
