<svg width="105" height="48" viewBox="0 0 105 48" fill="none" xmlns="http://www.w3.org/2000/svg">
<path d="M17 32.9994C17 32.4815 17.0984 31.9794 17.2435 31.5C18.0271 28.9122 20.7163 27 24.0054 27C27.2945 27 29.9863 28.9122 30.7699 31.5C30.9151 31.9794 31 32.5174 31 33.0055M28.5055 19.5C28.5055 21.9853 26.4908 24 24.0055 24C21.5203 24 19.5056 21.9853 19.5056 19.5C19.5056 17.0147 21.5203 15 24.0055 15C26.4908 15 28.5055 17.0147 28.5055 19.5Z" stroke="#1D1D1D" stroke-width="2" stroke-linecap="square" stroke-linejoin="round"/>
<path d="M45.36 30V18.4H49.728C51.84 18.4 53.904 18.976 53.904 21.36C53.904 22.448 53.296 23.408 52.608 23.84C53.568 24.272 54.352 25.024 54.352 26.56C54.352 29.056 52.384 30 50.016 30H45.36ZM47.392 24.8V28.368H50.096C51.552 28.368 52.256 27.712 52.256 26.56C52.256 25.36 51.536 24.8 49.984 24.8H47.392ZM47.392 20.032V23.248H49.92C51.12 23.248 51.84 22.736 51.84 21.584C51.84 20.56 51.072 20.032 49.92 20.032H47.392ZM57.5265 25.712C57.5265 27.696 58.5825 28.656 59.7985 28.656C61.0145 28.656 62.0705 27.696 62.0705 25.712C62.0705 23.728 61.0145 22.752 59.7985 22.752C58.5825 22.752 57.5265 23.728 57.5265 25.712ZM59.7985 21.2C61.8945 21.2 64.0385 22.608 64.0385 25.712C64.0385 28.832 61.8945 30.208 59.7985 30.208C57.7025 30.208 55.5585 28.832 55.5585 25.712C55.5585 22.608 57.7025 21.2 59.7985 21.2ZM70.9633 18.4H72.3393C72.2113 19.536 71.5073 20.336 69.6833 20.336C67.9073 20.336 67.1393 19.536 67.0593 18.4H68.4513C68.5153 18.976 68.8673 19.28 69.6993 19.28C70.5153 19.28 70.8993 18.976 70.9633 18.4ZM73.5873 21.392V30H71.6833V24.032L67.5873 30H65.6833V21.392H67.5873V27.392L71.6833 21.392H73.5873ZM82.5941 22.896H79.6661V30H77.7621V22.896H74.8181V21.392H82.5941V22.896ZM91.8841 21.392V30H89.9801V24.032L85.8841 30H83.9801V21.392H85.8841V27.392L89.9801 21.392H91.8841Z" fill="#1D1D1D"/>
</svg>
